# xmcd CD database file generated by Grip 3.2.0
# 
# Track frame offsets:
#       150
#       50408
#       85075
#       123963
#       152815
# 
# Disc length: 2351 seconds
# 
# Revision: 6
# Processed by: cddbd v1.5.2PL0 Copyright (c) Steve Scherf et al.
# Submitted via: Grip 3.2.0
# 
DISCID=34092d05
DTITLE=Creedence Clearwater Revival - Chooglin'
DYEAR=1987
DGENRE=Rock
TTITLE0=I Heard It Through the Grapevine
TTITLE1=Keep on Chooglin'
TTITLE2=Suzie Q
TTITLE3=Pagan Baby
TTITLE4=Born on the Bayou
EXTD=Year - 1987\n\nFantasy  FCD 9621-2
EXTT0=
EXTT1=
EXTT2=
EXTT3=
EXTT4=
PLAYORDER=
